<svg width="67" height="67" viewBox="0 0 67 67" fill="none" xmlns="http://www.w3.org/2000/svg">
<path d="M39.8822 30.9675C40.5876 30.9675 41.2851 31.1152 41.9299 31.4011C42.5748 31.6869 43.1526 32.1046 43.6262 32.6273C44.0999 33.1499 44.4589 33.766 44.6801 34.4357C44.9013 35.1055 44.9798 35.8142 44.9106 36.5161C44.7539 37.7899 44.1312 38.9605 43.1626 39.8024C42.1939 40.6443 40.9479 41.0978 39.6648 41.0755H42.9931L51.6199 32.445C52.6154 31.4494 53.7974 30.6596 55.0981 30.1207C56.3989 29.5819 57.7931 29.3046 59.2011 29.3046C60.6091 29.3046 62.0033 29.5819 63.3041 30.1207C64.6048 30.6596 65.7868 31.4494 66.7823 32.445L49.0753 50.1513C48.0246 51.2024 46.5994 51.7931 45.1132 51.7936H31.288C30.5013 51.7935 29.7468 52.1058 29.1902 52.6618L23.7336 58.1191L9.0097 43.3515L20.1834 32.1808C20.5681 31.7961 21.0249 31.4909 21.5276 31.2828C22.0303 31.0746 22.5691 30.9674 23.1132 30.9675H39.8822Z" fill="#F5C464"/>
<path d="M6.56714 40.9405L25.7996 60.1729L19.2324 66.7401L-1.72607e-05 47.5076L6.56714 40.9405Z" fill="#EE404C"/>
<path d="M48.6983 3.00622C48.6983 2.20892 48.3815 1.44427 47.8178 0.8805C47.254 0.316725 46.4893 0 45.692 0H21.0843C20.287 0 19.5223 0.316725 18.9586 0.8805C18.3948 1.44427 18.0781 2.20892 18.0781 3.00622V14.4344C18.0781 15.2317 18.3948 15.9964 18.9586 16.5601C19.5223 17.1239 20.287 17.4406 21.0843 17.4406H41.195L48.7005 21.8331V14.6274H48.6753C48.6797 14.5613 48.6953 14.499 48.6953 14.4315L48.6983 3.00622Z" fill="#009D8F"/>
<path d="M33.7124 10.5385C33.2537 10.5385 32.8054 10.4025 32.424 10.1476C32.0427 9.89282 31.7454 9.53064 31.5699 9.10689C31.3944 8.68314 31.3485 8.21686 31.4379 7.76701C31.5274 7.31716 31.7483 6.90395 32.0726 6.57962C32.3969 6.2553 32.8101 6.03443 33.26 5.94495C33.7098 5.85547 34.1761 5.9014 34.5999 6.07692C35.0236 6.25244 35.3858 6.54968 35.6406 6.93104C35.8954 7.31241 36.0314 7.76077 36.0314 8.21943C36.0307 8.83424 35.7861 9.42363 35.3513 9.85837C34.9166 10.2931 34.3272 10.5377 33.7124 10.5385Z" fill="#FFF7ED"/>
<path d="M41.0874 10.5385C40.6287 10.5385 40.1803 10.4025 39.799 10.1476C39.4176 9.89282 39.1204 9.53064 38.9448 9.10689C38.7693 8.68314 38.7234 8.21686 38.8129 7.76701C38.9024 7.31716 39.1232 6.90395 39.4475 6.57962C39.7719 6.2553 40.1851 6.03443 40.6349 5.94495C41.0848 5.85547 41.5511 5.9014 41.9748 6.07692C42.3986 6.25244 42.7607 6.54968 43.0156 6.93104C43.2704 7.31241 43.4064 7.76077 43.4064 8.21943C43.4056 8.83424 43.161 9.42363 42.7263 9.85837C42.2916 10.2931 41.7022 10.5377 41.0874 10.5385Z" fill="#FFF7ED"/>
<path d="M26.3383 10.5385C25.8796 10.5385 25.4312 10.4025 25.0499 10.1476C24.6685 9.89282 24.3713 9.53064 24.1958 9.10689C24.0202 8.68314 23.9743 8.21686 24.0638 7.76701C24.1533 7.31716 24.3741 6.90395 24.6985 6.57962C25.0228 6.2553 25.436 6.03443 25.8858 5.94495C26.3357 5.85547 26.802 5.9014 27.2257 6.07692C27.6495 6.25244 28.0117 6.54968 28.2665 6.93104C28.5213 7.31241 28.6573 7.76077 28.6573 8.21943C28.6565 8.83424 28.4119 9.42363 27.9772 9.85837C27.5425 10.2931 26.9531 10.5377 26.3383 10.5385Z" fill="#FFF7ED"/>
</svg>
