<svg width="47" height="47" viewBox="0 0 47 47" fill="none" xmlns="http://www.w3.org/2000/svg">
<path d="M44.0322 3.19739C42.5186 3.19739 41.2916 4.42435 41.2916 5.93798V20.9704L20.6458 39.4418L23.3864 46.75H38.551V40.3553L46.7728 26.698V5.93798C46.7728 4.42435 45.5459 3.19739 44.0322 3.19739Z" fill="#FF9E90"/>
<path d="M40.4889 19.0505C39.4186 17.9802 37.6834 17.9802 36.6132 19.0505L24.9881 30.6755C23.9965 31.6674 23.3864 33.0409 23.3864 34.5543L20.6458 39.2819L23.3864 44.0094C27.9272 44.0094 31.6082 40.3284 31.6082 35.7876V31.807L40.4889 22.9263C41.5592 21.856 41.5592 20.1208 40.4889 19.0505Z" fill="#FFB4B3"/>
<path d="M17.8596 31.7613L5.48119 20.9704V5.93798C5.48119 4.42435 4.25423 3.19739 2.7406 3.19739C1.22696 3.19739 0 4.42435 0 5.93798V26.698L8.22179 40.3553V46.75H23.3864V44.0094L17.8596 31.7613Z" fill="#FFB4B3"/>
<path d="M21.7847 30.6755L10.1597 19.0505C9.08938 17.9802 7.35412 17.9802 6.28392 19.0505C5.21363 20.1208 5.21363 21.8561 6.28392 22.9263L15.1646 31.807V35.7876C15.1646 40.3284 18.8456 44.0094 23.3864 44.0094V34.5543C23.3864 33.0409 22.7764 31.6674 21.7847 30.6755Z" fill="#FFCAD6"/>
<path d="M28.8676 5.93796V0H23.3864L19.7323 11.4192L23.3864 22.8383H28.8676V16.9003H34.8056V5.93796H28.8676Z" fill="#FF2B59"/>
<path d="M17.9052 0V5.93796H11.9673V16.9003H17.9052V22.8383H23.3864V0H17.9052Z" fill="#FF4E51"/>
</svg>
