<svg width="51" height="52" viewBox="0 0 51 52" fill="none" xmlns="http://www.w3.org/2000/svg">
<path d="M10.8668 24.2043C11.5029 23.8267 11.9987 23.2473 12.2776 22.5556C12.5565 21.8638 12.6031 21.0983 12.4102 20.377C12.2172 19.6558 11.7954 19.019 11.2099 18.565C10.6244 18.111 9.90779 17.865 9.17067 17.865C8.43354 17.865 7.71691 18.111 7.13142 18.565C6.54593 19.019 6.12414 19.6558 5.93117 20.377C5.7382 21.0983 5.78479 21.8638 6.06373 22.5556C6.34268 23.2473 6.83847 23.8267 7.47457 24.2043C6.73149 24.5367 6.09966 25.0808 5.65591 25.7704C5.21216 26.4601 4.97559 27.2655 4.97498 28.0889V36.5961H13.3664V28.0889C13.3657 27.2655 13.1292 26.4601 12.6854 25.7704C12.2417 25.0808 11.6098 24.5367 10.8668 24.2043Z" fill="#FCCC38"/>
<path d="M18.3414 42.7595V40.6412L16.6545 39.8865C16.5584 39.4492 16.4264 39.0208 16.2598 38.6057L17.1893 36.9801C16.8496 36.3652 16.4437 35.7904 15.9793 35.266L14.1944 35.6804C13.868 35.3893 13.5179 35.1268 13.1479 34.8957L12.9772 33.0045C12.3568 32.7097 11.7052 32.4876 11.0351 32.3425L9.81875 33.7734H8.5227L7.30635 32.3425C6.63629 32.4876 5.98474 32.7096 5.36436 33.0045L5.19365 34.8956C4.82364 35.1268 4.47356 35.3893 4.14714 35.6802L2.36229 35.2658C1.89785 35.7902 1.49202 36.3651 1.1522 36.98L2.08166 38.6055C1.91506 39.0206 1.78304 39.449 1.68699 39.8864L0 40.6411V42.7595L1.68688 43.5142C1.783 43.9515 1.91504 44.38 2.08161 44.795L1.15207 46.4206C1.49185 47.0354 1.89766 47.6103 2.36211 48.1347L4.14702 47.7203C4.47339 48.0114 4.82348 48.2739 5.19353 48.5051L5.36424 50.3962C5.98466 50.691 6.6362 50.9131 7.30625 51.0582L8.5227 49.6273H9.8187L11.0351 51.0582C11.7051 50.9131 12.3566 50.691 12.977 50.3962L13.1477 48.5051C13.5177 48.2739 13.8678 48.0114 14.1943 47.7204L15.9791 48.1348C16.4436 47.6104 16.8494 47.0355 17.1893 46.4207L16.2597 44.7951C16.4263 44.3801 16.5584 43.9517 16.6545 43.5143L18.3414 42.7595ZM9.1707 45.4435C8.44045 45.4435 7.7266 45.224 7.11942 44.8127C6.51224 44.4014 6.039 43.8168 5.75954 43.1328C5.48009 42.4488 5.40697 41.6962 5.54943 40.9701C5.6919 40.244 6.04355 39.5771 6.55991 39.0536C7.07628 38.5301 7.73417 38.1736 8.45038 38.0292C9.1666 37.8847 9.90898 37.9589 10.5836 38.2422C11.2583 38.5255 11.835 39.0052 12.2407 39.6208C12.6464 40.2363 12.8629 40.96 12.8629 41.7004C12.8629 42.6931 12.4739 43.6452 11.7815 44.3472C11.0891 45.0491 10.1499 45.4435 9.1707 45.4435Z" fill="#17AFDC"/>
<path d="M26.8104 6.3393C27.4465 5.96168 27.9423 5.38229 28.2212 4.69057C28.5002 3.99885 28.5467 3.23327 28.3538 2.51204C28.1608 1.7908 27.739 1.15402 27.1535 0.70001C26.568 0.245996 25.8514 0 25.1143 0C24.3771 0 23.6605 0.245996 23.075 0.70001C22.4895 1.15402 22.0677 1.7908 21.8748 2.51204C21.6818 3.23327 21.7284 3.99885 22.0073 4.69057C22.2863 5.38229 22.7821 5.96168 23.4182 6.3393C22.6751 6.67169 22.0433 7.21578 21.5995 7.90542C21.1558 8.59506 20.9192 9.40055 20.9186 10.2239V18.7311H29.31V10.2239C29.3093 9.40055 29.0728 8.59506 28.629 7.90542C28.1853 7.21578 27.5535 6.67169 26.8104 6.3393Z" fill="#F4393D"/>
<path d="M34.285 24.0439V21.9256L32.5981 21.171C32.502 20.7336 32.37 20.3052 32.2034 19.8902L33.1329 18.2645C32.7932 17.6496 32.3873 17.0748 31.9229 16.5504L30.138 16.9648C29.8116 16.6738 29.4615 16.4112 29.0915 16.1801L28.9208 14.2889C28.3004 13.9941 27.6488 13.772 26.9787 13.627L25.7624 15.0579H24.4663L23.25 13.627C22.5799 13.772 21.9283 13.9941 21.308 14.2889L21.1373 16.18C20.7672 16.4112 20.4172 16.6737 20.0907 16.9647L18.3059 16.5502C17.8415 17.0746 17.4356 17.6495 17.0958 18.2644L18.0253 19.8899C17.8587 20.305 17.7266 20.7335 17.6306 21.1709L15.9436 21.9256V24.0439L17.6305 24.7986C17.7266 25.2359 17.8586 25.6644 18.0252 26.0794L17.0957 27.705C17.4355 28.3199 17.8413 28.8947 18.3057 29.4192L20.0906 29.0048C20.417 29.2958 20.7671 29.5583 21.1371 29.7895L21.3078 31.6806C21.9283 31.9754 22.5798 32.1975 23.2499 32.3426L24.4663 30.9117H25.7623L26.9787 32.3426C27.6487 32.1975 28.3002 31.9754 28.9206 31.6807L29.0913 29.7895C29.4613 29.5583 29.8114 29.2958 30.1379 29.0049L31.9227 29.4192C32.3872 28.8948 32.793 28.3199 33.1329 27.7051L32.2033 26.0795C32.3699 25.6645 32.502 25.2361 32.5981 24.7987L34.285 24.0439ZM25.1143 26.7279C24.3841 26.7279 23.6702 26.5084 23.063 26.0971C22.4558 25.6858 21.9826 25.1012 21.7031 24.4172C21.4237 23.7333 21.3506 22.9806 21.493 22.2545C21.6355 21.5284 21.9872 20.8615 22.5035 20.338C23.0199 19.8145 23.6778 19.458 24.394 19.3136C25.1102 19.1691 25.8526 19.2433 26.5272 19.5266C27.2019 19.8099 27.7786 20.2897 28.1843 20.9052C28.59 21.5208 28.8065 22.2445 28.8065 22.9848C28.8065 23.9775 28.4175 24.9296 27.7251 25.6316C27.0327 26.3336 26.0935 26.7279 25.1143 26.7279Z" fill="#5358A1"/>
<path d="M42.754 25.0549C43.3901 24.6773 43.8859 24.0979 44.1648 23.4061C44.4438 22.7144 44.4903 21.9488 44.2974 21.2276C44.1044 20.5064 43.6826 19.8696 43.0971 19.4156C42.5116 18.9616 41.795 18.7156 41.0579 18.7156C40.3207 18.7156 39.6041 18.9616 39.0186 19.4156C38.4331 19.8696 38.0113 20.5064 37.8184 21.2276C37.6254 21.9488 37.672 22.7144 37.9509 23.4061C38.2299 24.0979 38.7257 24.6773 39.3618 25.0549C38.6187 25.3873 37.9869 25.9314 37.5431 26.621C37.0994 27.3106 36.8628 28.1161 36.8622 28.9395V37.4466H45.2536V28.9395C45.2529 28.1161 45.0164 27.3106 44.5726 26.621C44.1289 25.9314 43.4971 25.3873 42.754 25.0549Z" fill="#FCCC38"/>
<path d="M50.2285 42.7595V40.6412L48.5417 39.8865C48.4456 39.4492 48.3135 39.0208 48.1469 38.6057L49.0765 36.9801C48.7367 36.3652 48.3309 35.7904 47.8664 35.266L46.0815 35.6804C45.7551 35.3893 45.4051 35.1268 45.035 34.8957L44.8643 33.0045C44.2439 32.7097 43.5924 32.4876 42.9223 32.3425L41.7059 33.7734H40.4098L39.1935 32.3425C38.5234 32.4876 37.8719 32.7096 37.2515 33.0045L37.0808 34.8956C36.7108 35.1268 36.3607 35.3893 36.0343 35.6802L34.2494 35.2658C33.785 35.7902 33.3792 36.3651 33.0393 36.98L33.9688 38.6055C33.8022 39.0206 33.6702 39.449 33.5741 39.8864L31.8871 40.6411V42.7595L33.574 43.5142C33.6701 43.9515 33.8022 44.38 33.9688 44.795L33.0392 46.4206C33.379 47.0354 33.7848 47.6103 34.2493 48.1347L36.0342 47.7203C36.3605 48.0114 36.7106 48.2739 37.0807 48.5051L37.2514 50.3962C37.8718 50.691 38.5233 50.9131 39.1934 51.0582L40.4098 49.6273H41.7058L42.9222 51.0582C43.5923 50.9131 44.2438 50.691 44.8642 50.3962L45.0349 48.5051C45.4049 48.2739 45.755 48.0114 46.0814 47.7204L47.8663 48.1348C48.3307 47.6104 48.7366 47.0355 49.0764 46.4207L48.1469 44.7951C48.3135 44.3801 48.4455 43.9517 48.5416 43.5143L50.2285 42.7595ZM41.0578 45.4435C40.3276 45.4435 39.6137 45.224 39.0066 44.8127C38.3994 44.4014 37.9261 43.8168 37.6467 43.1328C37.3672 42.4488 37.2941 41.6962 37.4366 40.9701C37.579 40.244 37.9307 39.5771 38.4471 39.0536C38.9634 38.5301 39.6213 38.1736 40.3375 38.0292C41.0537 37.8847 41.7961 37.9589 42.4708 38.2422C43.1455 38.5255 43.7221 39.0052 44.1278 39.6208C44.5335 40.2363 44.7501 40.96 44.7501 41.7004C44.7501 42.6931 44.3611 43.6452 43.6686 44.3472C42.9762 45.0491 42.0371 45.4435 41.0578 45.4435Z" fill="#8BB4FC"/>
<path d="M6.20412 16.8076L4.6922 16.069C7.08613 11.0272 11.2112 7.04321 16.2947 4.86353L16.9486 6.43037C12.241 8.44889 8.42089 12.1384 6.20412 16.8076Z" fill="#848A8C"/>
<path d="M25.138 51.0583C22.8539 51.0602 20.5826 50.7121 18.4011 50.0256L18.8994 48.4006C23.0864 49.7077 27.57 49.6673 31.7335 48.2852L32.2604 49.9002C29.9626 50.6697 27.5579 51.0607 25.138 51.0583Z" fill="#848A8C"/>
<path d="M44.1284 17.0298C41.9004 12.1835 37.9517 8.36715 33.0705 6.34226L33.7072 4.76794C38.9785 6.95455 43.2426 11.0759 45.6485 16.3095L44.1284 17.0298Z" fill="#848A8C"/>
<path d="M41.0579 36.5962C40.0621 36.5962 39.0887 36.8956 38.2607 37.4564C37.4327 38.0173 36.7874 38.8145 36.4063 39.7471C36.0253 40.6798 35.9255 41.7061 36.1198 42.6963C36.3141 43.6864 36.7936 44.5959 37.4977 45.3097C38.2019 46.0236 39.099 46.5097 40.0757 46.7067C41.0523 46.9036 42.0646 46.8025 42.9846 46.4162C43.9046 46.0299 44.691 45.3756 45.2442 44.5362C45.7974 43.6968 46.0927 42.71 46.0927 41.7005C46.0927 40.3467 45.5623 39.0484 44.6181 38.0912C43.6738 37.134 42.3932 36.5962 41.0579 36.5962ZM41.0579 45.4436C40.3276 45.4436 39.6138 45.2241 39.0066 44.8128C38.3994 44.4015 37.9262 43.8169 37.6467 43.1329C37.3673 42.4489 37.2942 41.6963 37.4366 40.9702C37.5791 40.2441 37.9308 39.5772 38.4471 39.0537C38.9635 38.5302 39.6214 38.1737 40.3376 38.0293C41.0538 37.8848 41.7962 37.9589 42.4708 38.2423C43.1455 38.5256 43.7221 39.0053 44.1279 39.6209C44.5336 40.2364 44.7501 40.9601 44.7501 41.7005C44.7501 42.6932 44.3611 43.6453 43.6687 44.3473C42.9763 45.0492 42.0371 45.4436 41.0579 45.4436Z" fill="#B5CFF4"/>
<path d="M25.1143 17.8805C24.1185 17.8805 23.1451 18.1799 22.3171 18.7407C21.4891 19.3016 20.8438 20.0988 20.4627 21.0314C20.0816 21.9641 19.9819 22.9904 20.1762 23.9806C20.3705 24.9707 20.85 25.8802 21.5541 26.594C22.2583 27.3079 23.1554 27.794 24.132 27.991C25.1087 28.1879 26.121 28.0868 27.041 27.7005C27.961 27.3142 28.7474 26.6599 29.3006 25.8205C29.8538 24.9811 30.1491 23.9943 30.1491 22.9848C30.1491 21.631 29.6187 20.3327 28.6745 19.3755C27.7302 18.4183 26.4496 17.8805 25.1143 17.8805ZM25.1143 26.7279C24.384 26.7279 23.6702 26.5084 23.063 26.0971C22.4558 25.6858 21.9826 25.1012 21.7031 24.4172C21.4237 23.7332 21.3506 22.9806 21.493 22.2545C21.6355 21.5284 21.9871 20.8615 22.5035 20.338C23.0199 19.8145 23.6778 19.458 24.394 19.3136C25.1102 19.1691 25.8526 19.2433 26.5272 19.5266C27.2019 19.8099 27.7785 20.2896 28.1843 20.9052C28.59 21.5207 28.8065 22.2444 28.8065 22.9848C28.8065 23.9775 28.4175 24.9296 27.7251 25.6316C27.0327 26.3335 26.0935 26.7279 25.1143 26.7279Z" fill="#6570D6"/>
<path d="M9.17063 36.5962C8.17484 36.5962 7.2014 36.8956 6.37343 37.4564C5.54546 38.0173 4.90013 38.8145 4.51906 39.7471C4.13798 40.6798 4.03828 41.7061 4.23255 42.6963C4.42682 43.6864 4.90634 44.5959 5.61047 45.3097C6.3146 46.0236 7.21172 46.5097 8.18838 46.7067C9.16504 46.9036 10.1774 46.8025 11.0974 46.4162C12.0174 46.0299 12.8037 45.3756 13.3569 44.5362C13.9102 43.6968 14.2055 42.71 14.2055 41.7005C14.2055 40.3467 13.675 39.0484 12.7308 38.0912C11.7866 37.134 10.5059 36.5962 9.17063 36.5962ZM9.17063 45.4436C8.44038 45.4436 7.72653 45.2241 7.11935 44.8128C6.51217 44.4015 6.03893 43.8169 5.75948 43.1329C5.48002 42.4489 5.40691 41.6963 5.54937 40.9702C5.69183 40.2441 6.04348 39.5772 6.55985 39.0537C7.07621 38.5302 7.7341 38.1737 8.45032 38.0293C9.16653 37.8848 9.90891 37.9589 10.5836 38.2423C11.2582 38.5256 11.8349 39.0053 12.2406 39.6209C12.6463 40.2364 12.8628 40.9601 12.8628 41.7005C12.8628 42.6932 12.4738 43.6453 11.7814 44.3473C11.089 45.0492 10.1499 45.4436 9.17063 45.4436Z" fill="#5AC8E2"/>
</svg>
