<svg width="74" height="45" viewBox="0 0 74 45" fill="none" xmlns="http://www.w3.org/2000/svg">
<path d="M57.0077 30.4717L54.8962 28.6511C55.5824 29.5611 55.5683 30.8557 54.7939 31.7546L54.21 32.4309C53.0638 33.76 51.057 33.9085 49.7254 32.7621L47.5257 35.3135C46.8105 36.1441 45.758 36.5154 44.7442 36.3964C44.135 36.3249 43.5396 36.0757 43.0411 35.6447L40.8437 38.1964C40.1259 39.029 39.0737 39.398 38.0599 39.279C37.4507 39.2075 36.855 38.9606 36.3565 38.5296L34.1593 41.079C33.7454 41.5599 33.2182 41.8838 32.6519 42.0508L33.5873 42.8578C34.8415 43.9378 36.7343 43.7982 37.8142 42.5439L39.8838 40.1424C40.3535 40.5484 40.9146 40.7808 41.4886 40.8483C42.4435 40.9604 43.4348 40.6129 44.111 39.8285L46.1809 37.4248C46.6505 37.8309 47.2114 38.0656 47.7853 38.1329C48.7402 38.2452 49.7317 37.8953 50.4054 37.1128L52.4775 34.7093C53.7317 35.7893 55.6223 35.6494 56.702 34.3973L57.2521 33.7602C58.0927 32.7842 57.9836 31.3125 57.0077 30.4717Z" fill="#E59F6A"/>
<path d="M53.1793 33.909L49.3809 30.6339C48.9297 30.2447 48.2479 30.2951 47.8585 30.7466C47.4692 31.198 47.5197 31.8797 47.9712 32.269L51.7628 35.5383L52.4775 34.7093C52.7628 34.955 53.0818 35.1342 53.4159 35.2549C53.6624 34.8161 53.575 34.2502 53.1793 33.909Z" fill="#E59F6A"/>
<path d="M47.1062 37.9692C47.3662 37.528 47.2829 36.9511 46.8814 36.6048L43.4693 33.6629C43.0178 33.2737 42.3363 33.3241 41.9468 33.7756C41.5575 34.227 41.6081 34.9086 42.0595 35.298L45.4716 38.2399C45.4731 38.241 45.4745 38.242 45.476 38.2432L46.1809 37.4246C46.462 37.6676 46.7763 37.848 47.1062 37.9692Z" fill="#E59F6A"/>
<path d="M73.6802 29.8401L73.2898 26.6687C73.1128 26.9284 72.8301 27.1141 72.4936 27.1556L63.7752 28.2288C63.6045 28.2498 63.4346 28.26 63.2668 28.26C61.7987 28.26 60.4688 27.4768 59.733 26.2681L60.024 28.6319C60.2699 30.6291 61.9755 32.097 63.9387 32.097C64.0988 32.097 64.261 32.0872 64.4237 32.0672L72.7407 31.0433C73.3324 30.9705 73.7531 30.4318 73.6802 29.8401Z" fill="#3580D3"/>
<path d="M60.1966 21.1988L58.3247 5.99296L54.8171 6.42472L54.8185 6.42228L48.0182 2.59524C47.2928 2.18708 46.4604 2.00948 45.6315 2.08605L34.8941 3.07911C33.5742 3.20115 32.3947 3.9543 31.7288 5.10049L24.1608 18.1266C23.6019 19.0884 24.0406 20.322 25.0813 20.715L25.3909 20.8319C25.9864 21.0569 26.5985 21.1871 27.2103 21.2381L26.2514 22.0732L24.3329 23.7447L18.8764 28.3992C17.9051 29.2453 17.8042 30.7176 18.6503 31.689L19.2038 32.3229C20.2904 33.569 22.1817 33.6984 23.4301 32.6115L25.5155 35.0035C26.1935 35.7821 27.1869 36.1265 28.1412 36.0091C28.7148 35.9386 29.2743 35.7008 29.7417 35.2921L31.8248 37.6842C32.5052 38.4648 33.4985 38.8069 34.4528 38.6895C35.0263 38.6188 35.586 38.3834 36.0535 37.9748L37.1856 38.9532C38.2725 40.2014 40.1659 40.3305 41.4143 39.2436L42.9533 37.9009L55.8913 27.8247L55.9053 27.8118L61.0099 27.8068L60.1966 21.1988Z" fill="#F29F5C"/>
<path d="M54.6517 23.8944L54.6377 23.9072L41.6997 33.9835L40.1607 35.3262C38.9125 36.4131 37.0189 36.284 35.932 35.0357L34.7999 34.0574C34.3325 34.466 33.7726 34.7016 33.1992 34.7721C32.2449 34.8895 31.2518 34.5474 30.5712 33.7668L28.4881 31.3747C28.0206 31.7832 27.461 32.021 26.8877 32.0917C25.9333 32.2091 24.94 31.8648 24.2619 31.0861L22.1765 28.6941C21.1077 29.6247 19.5689 29.661 18.4661 28.8707C17.9004 29.7236 17.9456 30.8796 18.6507 31.689L19.2042 32.323C20.2908 33.569 22.1821 33.6984 23.4305 32.6115L25.5159 35.0035C26.194 35.7821 27.1873 36.1265 28.1417 36.0091C28.7152 35.9386 29.2746 35.7008 29.7421 35.2921L31.8252 37.6843C32.5057 38.465 33.4989 38.8071 34.4532 38.6896C35.0268 38.619 35.5865 38.3835 36.0539 37.9749L37.186 38.9533C38.2729 40.2015 40.1664 40.3306 41.4147 39.2437L42.9537 37.9011L55.8917 27.8248L55.9057 27.812L61.0103 27.807L60.4456 23.2193L54.6517 23.8944Z" fill="#D37D42"/>
<path d="M57.0077 30.4717L50.0757 24.4946L48.148 22.8337L46.7687 21.6458L40.8381 16.5337L41.523 10.7034C41.7547 8.73151 40.5134 6.88543 38.5998 6.35594L25.672 2.77875C24.3041 2.40023 22.8584 3.03493 22.2114 4.29814L20.5856 7.47162L13.6071 6.99797L11.8196 22.214L11.0427 28.8265L17.8355 29.2783L17.8497 29.2911L32.0407 41.5235L33.5871 42.8576C34.8414 43.9376 36.7341 43.798 37.8141 42.5437L39.8837 40.1422C40.3533 40.5482 40.9145 40.7807 41.4884 40.8482C42.4434 40.9604 43.4347 40.6127 44.1108 39.8284L46.1807 37.4247C46.6504 37.8307 47.2112 38.0654 47.7852 38.1328C48.7401 38.2451 49.7316 37.8952 50.4053 37.1127L52.4773 34.7092C53.7316 35.7892 55.6222 35.6493 56.7019 34.3972L57.2519 33.76C58.0927 32.7842 57.9837 31.3125 57.0077 30.4717Z" fill="#F9C295"/>
<path d="M18.1896 29.263L17.3674 30.3488C16.472 31.5311 16.7046 33.2154 17.8869 34.1109C19.0693 35.0062 20.7536 34.7737 21.6491 33.5913L22.4713 32.5056C23.3666 31.3233 23.1341 29.639 21.9517 28.7435C20.7694 27.8481 19.0849 28.0807 18.1896 29.263Z" fill="#F29F5C"/>
<path d="M23.1975 31.5467L21.6491 33.5914C20.7537 34.7737 20.9863 36.458 22.1686 37.3535C23.3509 38.2488 25.0353 38.0163 25.9307 36.8339L27.4792 34.7892C28.3745 33.6069 28.142 31.9226 26.9596 31.0271C25.7772 30.1318 24.0929 30.3643 23.1975 31.5467Z" fill="#F29F5C"/>
<path d="M28.0409 34.0473L25.9306 36.8339C25.0353 38.0162 25.2678 39.7005 26.4502 40.596C27.6325 41.4914 29.3168 41.2588 30.2123 40.0765L32.3226 37.2898C33.218 36.1075 32.9854 34.4232 31.8031 33.5277C30.6207 32.6322 28.9364 32.865 28.0409 34.0473Z" fill="#F29F5C"/>
<path d="M32.4451 37.1281L30.2123 40.0763C29.3169 41.2586 29.5495 42.943 30.7318 43.8385C31.9142 44.7338 33.5985 44.5012 34.494 43.3189L36.7268 40.3706C37.6221 39.1883 37.3895 37.504 36.2072 36.6085C35.0248 35.7132 33.3404 35.9458 32.4451 37.1281Z" fill="#F29F5C"/>
<path d="M54.8185 6.42228L48.0182 2.59524C47.2928 2.18708 46.4604 2.00948 45.6315 2.08605L34.8941 3.07911C33.5742 3.20115 32.3947 3.9543 31.7288 5.10049L24.1608 18.1266C23.6019 19.0886 24.0406 20.322 25.0813 20.715L25.3909 20.8319C28.165 21.8797 31.2979 20.9881 33.1045 18.6368L36.0041 14.8632C36.0041 14.8632 42.9741 22.9333 50.6481 13.5089" fill="#F29F5C"/>
<path d="M73.6802 29.8401L70.1235 0.947607C70.0885 0.663504 69.9421 0.404877 69.7165 0.228716C69.4908 0.0525552 69.2045 -0.0266028 68.9203 0.00822636L60.6033 1.03209C58.4432 1.29806 56.9022 3.27181 57.1682 5.43179L60.0242 28.632C60.27 30.6293 61.9756 32.0971 63.9388 32.0971C64.0989 32.0971 64.2611 32.0873 64.4239 32.0673L72.7408 31.0435C73.3324 30.9705 73.753 30.4318 73.6802 29.8401Z" fill="#5C9CEE"/>
<path d="M13.0852 1.03195L4.76825 0.00809098C4.48372 -0.0268821 4.19775 0.0524198 3.97208 0.228581C3.74641 0.404741 3.60004 0.663369 3.56507 0.947471L0.00831637 29.8401C-0.0645083 30.4318 0.356176 30.9705 0.947696 31.0433L9.26467 32.0672C9.42759 32.0872 9.5895 32.097 9.74969 32.097C11.7128 32.097 13.4186 30.629 13.6644 28.6319L16.5204 5.43165C16.7863 3.27167 15.2454 1.29792 13.0852 1.03195Z" fill="#ED5575"/>
<path d="M0.00818127 29.8401L0.398642 26.6687C0.575666 26.9284 0.85833 27.1141 1.19482 27.1556L9.91319 28.2288C10.0839 28.2498 10.2539 28.26 10.4217 28.26C11.8897 28.26 13.2197 27.4768 13.9554 26.2681L13.6644 28.6319C13.4186 30.6291 11.7129 32.097 9.7497 32.097C9.58966 32.097 9.42746 32.0872 9.26468 32.0672L0.947705 31.0433C0.355897 30.9705 -0.0646434 30.4318 0.00818127 29.8401Z" fill="#CC3A60"/>
<path d="M66.7798 27.3005C67.9322 27.3005 68.8664 26.3663 68.8664 25.2139C68.8664 24.0615 67.9322 23.1273 66.7798 23.1273C65.6275 23.1273 64.6933 24.0615 64.6933 25.2139C64.6933 26.3663 65.6275 27.3005 66.7798 27.3005Z" fill="#EBEEF2"/>
<path d="M6.79168 27.3005C7.94407 27.3005 8.87826 26.3663 8.87826 25.2139C8.87826 24.0615 7.94407 23.1273 6.79168 23.1273C5.63929 23.1273 4.70509 24.0615 4.70509 25.2139C4.70509 26.3663 5.63929 27.3005 6.79168 27.3005Z" fill="#EBEEF2"/>
</svg>
