<svg width="53" height="42" viewBox="0 0 53 42" fill="none" xmlns="http://www.w3.org/2000/svg">
<path d="M29.4223 25.0979C28.6238 25.0979 27.8436 25.0185 27.0885 24.8684V40.2306H31.5717V24.9038C30.8742 25.031 30.1559 25.0979 29.4223 25.0979Z" fill="#01D0FB"/>
<path d="M27.0885 24.8684V40.2306H28.8508V25.0839C28.2507 25.0555 27.6623 24.9825 27.0885 24.8684Z" fill="#01C0FA"/>
<path d="M23.7709 40.2304V28.0895C23.7709 27.8796 23.6007 27.7094 23.3907 27.7094H19.668C19.458 27.7094 19.2878 27.8796 19.2878 28.0895V40.2305H23.7709V40.2304Z" fill="#FED402"/>
<path d="M21.0108 40.2304V28.0895C21.0108 27.8796 21.181 27.7094 21.391 27.7094H19.668C19.458 27.7094 19.2878 27.8796 19.2878 28.0895V40.2305H21.0108V40.2304Z" fill="#FAC600"/>
<path d="M15.9702 40.2305V21.3549C15.9702 21.145 15.8 20.9747 15.59 20.9747H11.8673C11.6573 20.9747 11.4871 21.145 11.4871 21.3549V40.2305H15.9702Z" fill="#01D0FB"/>
<path d="M13.2638 40.2305V21.3549C13.2638 21.145 13.434 20.9747 13.644 20.9747H11.8672C11.6573 20.9747 11.487 21.145 11.487 21.3549V40.2305H13.2638Z" fill="#01C0FA"/>
<path d="M8.16952 40.2304V13.7435C8.16952 13.5335 7.9993 13.3633 7.78933 13.3633H4.06659C3.85662 13.3633 3.6864 13.5335 3.6864 13.7435V40.2305H8.16952V40.2304Z" fill="#05E39C"/>
<path d="M5.43568 40.2304V13.7435C5.43568 13.5335 5.6059 13.3633 5.81587 13.3633H4.06659C3.85662 13.3633 3.6864 13.5335 3.6864 13.7435V40.2305H5.43568V40.2304Z" fill="#0ED290"/>
<path d="M34.4857 41.6721H0.77233C0.345695 41.6721 0 41.3263 0 40.8998C0 40.4732 0.345695 40.1274 0.77233 40.1274H34.4857C34.9123 40.1274 35.258 40.4732 35.258 40.8998C35.258 41.3263 34.9122 41.6721 34.4857 41.6721Z" fill="#A8D3D8"/>
<path d="M42.6978 24.0043L38.988 20.2944C38.3003 21.2131 37.4836 22.0298 36.565 22.7175L40.2748 26.4274L42.6978 24.0043Z" fill="#A8D3D8"/>
<path d="M37.7129 21.7377C37.351 22.0873 36.9684 22.4156 36.565 22.7176L40.2748 26.4275L41.3388 25.3635L37.7129 21.7377Z" fill="#8EBAC5"/>
<path d="M52.2651 34.0099L50.347 35.928C49.7347 36.5403 48.7419 36.5403 48.1296 35.928L39.8248 27.6232C39.5774 27.3757 39.5774 26.9744 39.8248 26.727L43.0641 23.4877C43.3115 23.2403 43.7128 23.2403 43.9603 23.4877L52.2651 31.7925C52.8775 32.4048 52.8775 33.3976 52.2651 34.0099Z" fill="#678D98"/>
<path d="M43.3454 27.6232C43.0979 27.3757 43.0979 26.9744 43.3454 26.727L45.2725 24.7999L43.9604 23.4877C43.7129 23.2403 43.3116 23.2403 43.0642 23.4877L39.8249 26.727C39.5774 26.9744 39.5774 27.3757 39.8249 27.6232L48.1296 35.928C48.7419 36.5403 49.7347 36.5403 50.347 35.928L50.9986 35.2765L43.3454 27.6232Z" fill="#537983"/>
<path d="M29.4223 1.10278C27.4587 1.10278 25.6049 1.57277 23.9669 2.40606V7.46895C23.9669 7.5851 23.8725 7.67953 23.7563 7.67953H18.6849C17.8464 9.32161 17.3733 11.1815 17.3733 13.1519C17.3733 19.8064 22.7679 25.2008 29.4223 25.2008C36.0767 25.2008 41.4712 19.8062 41.4712 13.1518C41.4712 6.49725 36.0768 1.10278 29.4223 1.10278Z" fill="#678D98"/>
<path d="M23.9669 5.3396C24.4366 5.01069 24.9366 4.72246 25.4627 4.48128C27.1281 2.87432 29.2551 1.7425 31.6253 1.30453C30.911 1.17252 30.1747 1.10291 29.4221 1.10291C27.4586 1.10291 25.6048 1.57289 23.9668 2.40619V5.3396H23.9669Z" fill="#537983"/>
<path d="M19.8896 13.1518C19.8896 11.1169 20.5309 9.22925 21.6214 7.67944H18.685C17.8465 9.32152 17.3733 11.1814 17.3733 13.1518C17.3733 19.8063 22.7679 25.2007 29.4223 25.2007C30.1748 25.2007 30.9111 25.1311 31.6255 24.9991C29.2552 24.5611 27.1283 23.4293 25.463 21.8225C22.1775 20.3162 19.8896 16.9963 19.8896 13.1518Z" fill="#537983"/>
<path d="M29.4223 4.95789C27.3287 4.95789 25.4169 5.74813 23.9669 7.04462V7.46889C23.9669 7.58504 23.8725 7.67948 23.7563 7.67948H23.3297C22.0243 9.13146 21.2282 11.0501 21.2282 13.1518C21.2282 17.67 24.904 21.3458 29.4221 21.3458C33.9404 21.3458 37.6162 17.67 37.6162 13.1518C37.6163 8.63366 33.9405 4.95789 29.4223 4.95789Z" fill="#C8EFFE"/>
<path d="M24.0741 13.1518C24.0741 9.46148 26.3423 6.29287 29.5568 4.96116C29.5118 4.96044 29.4674 4.95776 29.4223 4.95776C27.3287 4.95776 25.4169 5.74801 23.9669 7.0445V7.46876C23.9669 7.58492 23.8725 7.67935 23.7563 7.67935H23.3297C22.0243 9.13133 21.2282 11.05 21.2282 13.1517C21.2282 17.6699 24.904 21.3457 29.4221 21.3457C29.4673 21.3457 29.5118 21.343 29.5568 21.3423C26.3423 20.0108 24.0741 16.8422 24.0741 13.1518Z" fill="#99E6FC"/>
<path d="M29.4222 3.51624C27.3986 3.51624 25.5191 4.14378 23.9669 5.21382V7.18233C25.4065 5.86556 27.322 5.0609 29.4222 5.0609C33.8836 5.0609 37.5133 8.69054 37.5133 13.1519C37.5133 17.6133 33.8836 21.243 29.4222 21.243C24.9609 21.243 21.3313 17.6133 21.3313 13.1519C21.3313 11.0434 22.1428 9.12129 23.4689 7.67961H21.496C20.4188 9.23498 19.7867 11.1209 19.7867 13.1519C19.7867 18.465 24.1092 22.7876 29.4222 22.7876C34.7355 22.7876 39.0579 18.465 39.0579 13.1519C39.0579 7.83881 34.7355 3.51624 29.4222 3.51624Z" fill="#8EBAC5"/>
<path d="M29.3796 13.2547H34.501L34.754 13.1517C34.754 10.2118 32.3622 7.82007 29.4224 7.82007C27.9512 7.82007 26.6173 8.41909 25.6516 9.38594L25.7735 9.65317L29.3796 13.2547Z" fill="#FD5426"/>
<path d="M29.4222 13.1518H34.7539C34.7539 16.0767 32.3471 18.4834 29.4222 18.4834C26.4974 18.4834 24.0906 16.0767 24.0906 13.1518C24.0906 11.7395 24.6517 10.3834 25.6498 9.38416L29.4222 13.1518Z" fill="#01D0FB"/>
<path d="M25.8075 13.1518C25.8075 12.1513 26.0904 11.1798 26.6094 10.3426L25.6498 9.38416C24.6517 10.3834 24.0906 11.7395 24.0906 13.1518C24.0906 16.0767 26.4974 18.4834 29.4222 18.4834C29.7143 18.4834 30.0009 18.4584 30.2808 18.4123C27.758 17.9967 25.8075 15.7846 25.8075 13.1518Z" fill="#01C0FA"/>
<path d="M23.7563 7.78251H3.99994C3.82673 7.78251 3.68637 7.64216 3.68637 7.46895V0.313566C3.68637 0.140358 3.82673 0 3.99994 0H23.7563C23.9296 0 24.0699 0.140358 24.0699 0.313566V7.46884C24.07 7.64205 23.9296 7.78251 23.7563 7.78251Z" fill="#FD5426"/>
<path d="M8.76892 7.46884V0.313566C8.76892 0.140358 8.90928 0 9.08249 0H3.99994C3.82673 0 3.68637 0.140358 3.68637 0.313566V7.46884C3.68637 7.64205 3.82673 7.78241 3.99994 7.78241H9.08259C8.90938 7.78251 8.76892 7.64205 8.76892 7.46884Z" fill="#EF4424"/>
<path d="M9.74132 4.66356H7.13589C6.70925 4.66356 6.36356 4.31776 6.36356 3.89123C6.36356 3.46469 6.70925 3.1189 7.13589 3.1189H9.74132C10.168 3.1189 10.5136 3.46469 10.5136 3.89123C10.5136 4.31776 10.1678 4.66356 9.74132 4.66356Z" fill="#D73D24"/>
<path d="M20.6204 4.66356H12.1534C11.7267 4.66356 11.381 4.31776 11.381 3.89123C11.381 3.46469 11.7267 3.1189 12.1534 3.1189H20.6204C21.047 3.1189 21.3927 3.46469 21.3927 3.89123C21.3927 4.31776 21.047 4.66356 20.6204 4.66356Z" fill="#D73D24"/>
</svg>
