<svg width="56" height="56" viewBox="0 0 56 56" fill="none" xmlns="http://www.w3.org/2000/svg">
<path d="M46.3663 14.0184H42.875H13.125H9.625V55.1163L14 50.7413H42L46.375 55.1163V14.0184H46.3663Z" fill="#F6BB42"/>
<path d="M46.375 55.1162V55.125H9.625V55.1162L14 50.7412H42L46.375 55.1162Z" fill="#FFCE54"/>
<path d="M15.75 42.875C15.75 42.3937 16.1437 42 16.625 42H39.375C39.8563 42 40.25 42.3937 40.25 42.875V46.375C40.25 46.8562 39.8563 47.25 39.375 47.25H16.625C16.1437 47.25 15.75 46.8562 15.75 46.375V42.875Z" fill="#E6E9ED"/>
<path d="M13.125 10.535V14.0184H9.625L13.0988 10.535H13.125Z" fill="#EDAB37"/>
<path d="M46.3663 14.0184H42.875V10.535H42.8837L46.3663 14.0184Z" fill="#EDAB37"/>
<path d="M42.875 6.125H37.625V0.875L42.875 6.125Z" fill="#F5F7FA"/>
<path d="M42.875 10.535V14.0184H13.125V10.535V0.875H37.625V6.125H42.875V10.535Z" fill="#E6E9ED"/>
<path d="M36.75 45.0616H19.2518C19.0103 45.0616 18.8143 44.8656 18.8143 44.6241C18.8143 44.3826 19.0103 44.1866 19.2518 44.1866H36.75C36.9915 44.1866 37.1875 44.3826 37.1875 44.6241C37.1875 44.8656 36.9915 45.0616 36.75 45.0616Z" fill="#CCD1D9"/>
<path d="M28 29.3143C27.888 29.3143 27.776 29.2714 27.6903 29.1865C27.5196 29.0159 27.5196 28.7385 27.6903 28.5679C27.7489 28.5075 29.1559 27.0209 27.6351 24.7441C25.7084 21.8549 27.6701 19.8389 27.6903 19.8188C27.8609 19.6481 28.1383 19.6481 28.3089 19.8188C28.4786 19.9885 28.4795 20.265 28.3106 20.4356C28.2441 20.5039 26.8485 21.9861 28.364 24.2585C30.2925 27.1478 28.3299 29.1664 28.3089 29.1865C28.224 29.2714 28.112 29.3143 28 29.3143Z" fill="#545C66"/>
<path d="M28 17.5096C28.9713 17.5096 29.75 18.2884 29.75 19.2596C29.75 20.2221 28.9713 21.0096 28 21.0096C27.0375 21.0096 26.25 20.2221 26.25 19.2596C26.25 18.2875 27.0375 17.5096 28 17.5096Z" fill="#656D78"/>
</svg>
