<svg width="61" height="61" viewBox="0 0 61 61" fill="none" xmlns="http://www.w3.org/2000/svg">
<g clip-path="url(#clip0_24_119)">
<path d="M59.2129 61H42.5332C41.5462 61 40.7461 60.1999 40.7461 59.2129V58.0215C40.7461 52.4375 45.289 47.8945 50.873 47.8945C56.457 47.8945 61 52.4375 61 58.0215V59.2129C61 60.1999 60.1999 61 59.2129 61Z" fill="#FFF064"/>
<path d="M59.2129 61C60.1999 61 61 60.1999 61 59.2129V58.0215C61 52.4375 56.457 47.8945 50.873 47.8945V61H59.2129Z" fill="#FFDC1E"/>
<path d="M50.873 51.4688C46.9314 51.4688 43.7246 48.262 43.7246 44.3203C43.7246 40.3787 46.9314 37.1719 50.873 37.1719C54.8147 37.1719 58.0215 40.3787 58.0215 44.3203C58.0215 48.262 54.8146 51.4688 50.873 51.4688Z" fill="#FFD0AF"/>
<path d="M50.873 37.1719V51.4688C54.8147 51.4688 58.0215 48.262 58.0215 44.3203C58.0215 40.3787 54.8147 37.1719 50.873 37.1719Z" fill="#FABE8C"/>
<path d="M18.4668 23.8281H1.78711C0.800148 23.8281 0 23.028 0 22.041V20.8496C0 15.2656 4.54295 10.7227 10.127 10.7227C15.711 10.7227 20.2539 15.2656 20.2539 20.8496V22.041C20.2539 23.028 19.4538 23.8281 18.4668 23.8281Z" fill="#00AFFF"/>
<path d="M18.4668 23.8281C19.4538 23.8281 20.2539 23.028 20.2539 22.041V20.8496C20.2539 15.2656 15.711 10.7227 10.127 10.7227V23.8281H18.4668Z" fill="#008CFA"/>
<path d="M10.127 14.2969C6.1853 14.2969 2.97852 11.0901 2.97852 7.14844C2.97852 3.20679 6.1853 0 10.127 0C14.0686 0 17.2754 3.20679 17.2754 7.14844C17.2754 11.0901 14.0685 14.2969 10.127 14.2969Z" fill="#FFD0AF"/>
<path d="M10.127 0V14.2969C14.0686 14.2969 17.2754 11.0901 17.2754 7.14844C17.2754 3.20679 14.0686 0 10.127 0Z" fill="#FABE8C"/>
<path d="M59.2129 23.8281H42.5332C41.5462 23.8281 40.7461 23.028 40.7461 22.041V20.8496C40.7461 15.2656 45.289 10.7227 50.873 10.7227C56.457 10.7227 61 15.2656 61 20.8496V22.041C61 23.028 60.1999 23.8281 59.2129 23.8281Z" fill="#64E6E6"/>
<path d="M59.2129 23.8281C60.1999 23.8281 61 23.028 61 22.041V20.8496C61 15.2656 56.457 10.7227 50.873 10.7227V23.8281H59.2129Z" fill="#00CDCD"/>
<path d="M50.873 14.2969C46.9314 14.2969 43.7246 11.0901 43.7246 7.14844C43.7246 3.20679 46.9314 0 50.873 0C54.8147 0 58.0215 3.20679 58.0215 7.14844C58.0215 11.0901 54.8146 14.2969 50.873 14.2969Z" fill="#FFD0AF"/>
<path d="M50.873 0V14.2969C54.8147 14.2969 58.0215 11.0901 58.0215 7.14844C58.0215 3.20679 54.8147 0 50.873 0Z" fill="#FABE8C"/>
<path d="M26.212 40.683C26.2065 40.6899 26.2194 40.6778 26.2131 40.684L7.11841 59.7787C5.49 61.4071 2.84972 61.4071 1.22131 59.7787C-0.407103 58.1503 -0.407103 55.51 1.22131 53.8816L20.316 34.7869L26.212 40.683Z" fill="#C8E1F5"/>
<path d="M7.11842 59.7787L26.2131 40.6841C26.2194 40.6778 26.2065 40.69 26.212 40.6831L23.2645 37.7355L1.22131 59.7787C2.84973 61.4071 5.49 61.4071 7.11842 59.7787Z" fill="#AACDE6"/>
<path d="M30.5 44.7969C38.3959 44.7969 44.7969 38.3959 44.7969 30.5C44.7969 22.6041 38.3959 16.2031 30.5 16.2031C22.6041 16.2031 16.2031 22.6041 16.2031 30.5C16.2031 38.3959 22.6041 44.7969 30.5 44.7969Z" fill="#E1F5FF"/>
<path d="M20.3906 40.6094C22.9778 43.1966 26.5521 44.7969 30.5 44.7969C38.3959 44.7969 44.7969 38.3959 44.7969 30.5C44.7969 26.552 43.1967 22.9778 40.6095 20.3906L20.3906 40.6094Z" fill="#C8E1F5"/>
<path d="M30.5 44.7969C34.3733 44.7969 37.8861 43.2559 40.4609 40.7544C40.092 38.6672 39.0802 36.7504 37.5335 35.2526C35.638 33.4172 33.1403 32.4062 30.5006 32.4062H30.5C27.8604 32.4062 25.3627 33.4172 23.4672 35.2526C21.9204 36.7505 20.9084 38.6674 20.5396 40.7549C23.1143 43.2561 26.627 44.7969 30.5 44.7969Z" fill="#FF823C"/>
<path d="M20.5396 40.7549C23.1143 43.256 26.627 44.7969 30.5 44.7969C34.3733 44.7969 37.8861 43.2559 40.4609 40.7544C40.092 38.6672 39.0802 36.7504 37.5335 35.2526C35.638 33.4172 33.1403 32.4062 30.5006 32.4062H30.5C29.7745 32.4062 29.0603 32.4854 28.3659 32.6342L20.6133 40.3868C20.5869 40.509 20.5614 40.6315 20.5396 40.7549Z" fill="#F06923"/>
<path d="M14.416 30.5C14.416 21.6313 21.6313 14.416 30.5 14.416C39.3687 14.416 46.584 21.6313 46.584 30.5C46.584 39.3687 39.3687 46.584 30.5 46.584C21.6313 46.584 14.416 39.3687 14.416 30.5ZM17.9902 30.5C17.9902 37.3979 23.6021 43.0098 30.5 43.0098C37.3979 43.0098 43.0098 37.3979 43.0098 30.5C43.0098 23.6021 37.3979 17.9902 30.5 17.9902C23.6021 17.9902 17.9902 23.6021 17.9902 30.5Z" fill="#556E87"/>
<path d="M39.3416 21.6585C41.6068 23.9237 43.0098 27.0511 43.0098 30.5C43.0098 37.3979 37.3979 43.0098 30.5 43.0098C27.0512 43.0098 23.9237 41.6068 21.6585 39.3416L19.1324 41.8677C22.0446 44.7802 26.0656 46.584 30.5 46.584C39.3687 46.584 46.584 39.3687 46.584 30.5C46.584 26.0656 44.7802 22.0446 41.8678 19.1322L39.3416 21.6585Z" fill="#435569"/>
<path d="M25.4453 23.7773C28.2325 20.9902 32.7676 20.9902 35.5547 23.7773C38.3419 26.5645 38.3419 31.0996 35.5547 33.8868C32.7676 36.6739 28.2325 36.6739 25.4453 33.8868C22.6581 31.0996 22.6581 26.5644 25.4453 23.7773Z" fill="#FFD0AF"/>
<path d="M26.3492 34.6507C29.1398 36.6434 33.0516 36.3898 35.5547 33.8868C38.0577 31.3838 38.3113 27.4718 36.3186 24.6814L26.3492 34.6507Z" fill="#FABE8C"/>
</g>
<defs>
<clipPath id="clip0_24_119">
<rect width="61" height="61" fill="white"/>
</clipPath>
</defs>
</svg>
