<svg width="55" height="55" viewBox="0 0 55 55" fill="none" xmlns="http://www.w3.org/2000/svg">
<g clip-path="url(#clip0_24_0)">
<path d="M24.7943 26.7972C24.7161 26.7381 24.6996 26.6276 24.757 26.5482C25.5822 25.4071 31.097 17.5386 34.2997 6.84142C34.3282 6.74635 34.4281 6.69232 34.5233 6.72046L48.8142 10.954C44.7817 24.5664 37.7832 34.3078 36.7857 35.6537C36.757 35.6924 36.7141 35.7179 36.6665 35.7247C36.6189 35.7315 36.5705 35.719 36.5323 35.6899L30.67 31.2372L24.7943 26.7972Z" fill="#78C2A4"/>
<path d="M48.8142 10.9539L46.2689 10.2C42.1726 23.4904 35.3583 32.9167 34.4641 34.119L36.5321 35.6899C36.5705 35.719 36.6188 35.7315 36.6664 35.7247C36.714 35.7179 36.757 35.6922 36.7855 35.6537C37.7832 34.3078 44.7817 24.5663 48.8142 10.9539Z" fill="#66B394"/>
<path d="M18.6278 47.4173L20.0793 47.836C31.9168 51.2512 44.6768 48.6124 54.1888 40.7824C55.2292 39.9259 55.2759 38.3486 54.2878 37.4322L54.2429 37.3905C53.2353 36.4558 51.7434 36.3052 50.58 37.013L45.8079 39.916C40.9767 42.8549 35.0888 43.4927 29.7404 41.6568C27.5329 40.899 27.1155 37.9577 29.0252 36.6158L33.9883 33.1279C34.9242 32.4702 35.1649 31.186 34.5305 30.234C34.0489 29.511 33.173 29.1576 32.3243 29.3438L18.6277 32.3486L16.3683 34.7883V45.1426L18.6278 47.4173Z" fill="#F1D0A5"/>
<path d="M29.0252 36.6156L33.9883 33.1279C34.8991 32.4879 35.149 31.2554 34.5773 30.3123C34.4306 30.5542 34.2342 30.7708 33.9883 30.9437L29.0252 34.4313C27.846 35.26 27.5551 36.6981 28.0241 37.8556C28.2194 37.3822 28.5503 36.9494 29.0252 36.6156Z" fill="#F1B986"/>
<path d="M54.7119 37.9709C54.5812 38.2032 54.4085 38.4174 54.1888 38.5983C46.1142 45.2451 35.6991 48.1503 25.4946 46.7875C22.819 46.4301 20.8215 44.1459 20.8215 41.4466V31.8674L18.6277 32.3487V45.2331V47.4173L20.0792 47.836C20.3256 47.9071 20.5727 47.9746 20.8199 48.0405C20.8204 48.0407 20.8209 48.0409 20.8214 48.041C32.4478 51.1379 44.8751 48.4492 54.1886 40.7825C55.0461 40.0767 55.2269 38.8824 54.7119 37.9709Z" fill="#F1B986"/>
<path d="M12.2673 51.7771L1.21387 52.162C0.55043 52.1851 0 51.6535 0 50.9896V29.0784C0 28.4145 0.55043 27.883 1.21387 27.9061L12.2673 28.2909C12.8989 28.3129 13.3995 28.8312 13.3995 29.4632V50.6047C13.3995 51.2368 12.8988 51.7551 12.2673 51.7771Z" fill="#DD636E"/>
<path d="M12.2673 28.291L11.386 28.2603V51.8078L12.2673 51.7771C12.8989 51.7551 13.3995 51.2367 13.3995 50.6048V29.4633C13.3995 28.8313 12.8988 28.313 12.2673 28.291Z" fill="#C63D4F"/>
<path d="M13.3995 50.0905H17.3864C18.072 50.0905 18.6278 49.5347 18.6278 48.8491V31.2189C18.6278 30.5333 18.072 29.9775 17.3864 29.9775H13.3995V50.0905Z" fill="#ECF4FF"/>
<path d="M17.3864 29.9775H15.5931C16.2787 29.9775 16.8345 30.5333 16.8345 31.2189V48.8491C16.8345 49.5347 16.2787 50.0905 15.5931 50.0905H17.3864C18.072 50.0905 18.6278 49.5347 18.6278 48.8491V31.2189C18.6278 30.5333 18.072 29.9775 17.3864 29.9775Z" fill="#DDEAFB"/>
<path d="M9.21669 48.3559C8.75821 48.3559 8.38675 47.9844 8.38675 47.526V45.0492C8.38675 44.5907 8.75832 44.2192 9.21669 44.2192C9.67517 44.2192 10.0466 44.5908 10.0466 45.0492V47.526C10.0467 47.9844 9.67517 48.3559 9.21669 48.3559Z" fill="#ECF4FF"/>
<path d="M27.3554 23.6967C30.8691 23.6967 33.7174 20.8483 33.7174 17.3346C33.7174 13.8209 30.8691 10.9725 27.3554 10.9725C23.8417 10.9725 20.9933 13.8209 20.9933 17.3346C20.9933 20.8483 23.8417 23.6967 27.3554 23.6967Z" fill="#F6E266"/>
<path d="M33.7175 17.3346C33.7175 13.8209 30.8691 10.9725 27.3554 10.9725C26.8223 10.9725 26.3048 11.039 25.81 11.1626C28.5767 11.8531 30.6267 14.3541 30.6267 17.3346C30.6267 20.3152 28.5768 22.8161 25.81 23.5067C26.3049 23.6303 26.8224 23.6968 27.3554 23.6968C30.8691 23.6967 33.7175 20.8483 33.7175 17.3346Z" fill="#ECBE6B"/>
<path d="M43.176 33.9586C46.6896 33.9586 49.538 31.1102 49.538 27.5966C49.538 24.0829 46.6896 21.2345 43.176 21.2345C39.6623 21.2345 36.8139 24.0829 36.8139 27.5966C36.8139 31.1102 39.6623 33.9586 43.176 33.9586Z" fill="#F6E266"/>
<path d="M43.176 21.2344C42.6428 21.2344 42.1254 21.3009 41.6305 21.4244C44.3971 22.1149 46.4472 24.6159 46.4472 27.5964C46.4472 30.5771 44.3972 33.078 41.6305 33.7686C42.1254 33.8921 42.6428 33.9586 43.176 33.9586C46.6896 33.9586 49.538 31.1102 49.538 27.5964C49.5381 24.0829 46.6897 21.2344 43.176 21.2344Z" fill="#ECBE6B"/>
<path d="M48.6379 15.5616C52.1516 15.5616 55 12.7133 55 9.19958C55 5.68592 52.1516 2.83752 48.6379 2.83752C45.1243 2.83752 42.2759 5.68592 42.2759 9.19958C42.2759 12.7133 45.1243 15.5616 48.6379 15.5616Z" fill="#F6E266"/>
<path d="M48.6379 2.83752C48.1048 2.83752 47.5874 2.90402 47.0925 3.02755C49.8591 3.71806 51.9092 6.21906 51.9092 9.19959C51.9092 12.1802 49.8592 14.6811 47.0925 15.3717C47.5874 15.4953 48.1048 15.5618 48.6379 15.5618C52.1516 15.5618 55 12.7134 55 9.19959C55 5.68592 52.1516 2.83752 48.6379 2.83752Z" fill="#ECBE6B"/>
</g>
<defs>
<clipPath id="clip0_24_0">
<rect width="55" height="55" fill="white"/>
</clipPath>
</defs>
</svg>
